<?xml version="1.0" encoding="UTF-8"?><svg id="Layer_1" xmlns="http://www.w3.org/2000/svg" viewBox="0 0 100 100"><defs><style>.cls-1{fill:#008c7c;}.cls-2{fill:#517bbd;}.cls-3{fill:#f37421;}.cls-4{fill:#00b18d;}.cls-5{fill:#f9a11b;}</style></defs><path class="cls-4" d="M50,1.29h0c-8.97,0-16.24,7.27-16.24,16.24h0v16.24h-16.24c-8.97,0-16.24,7.27-16.24,16.24h0c0,8.97,7.27,16.24,16.24,16.24h16.24s0,0,0,0c17.93,0,32.47-14.54,32.47-32.47v-16.24h0c0-8.97-7.27-16.24-16.24-16.24Z"/><path class="cls-5" d="M98.71,50h0c0,8.97-7.27,16.24-16.24,16.24h-16.24s0,16.24,0,16.24h0c0,8.97-7.27,16.24-16.24,16.24h0c-8.97,0-16.24-7.27-16.24-16.24h0v-16.24s0,0,0,0h0c0-17.93,14.54-32.47,32.47-32.47h16.24s0,0,0,0h0c8.97,0,16.24,7.27,16.24,16.24Z"/><path class="cls-1" d="M66.24,33.76c0,17.93-14.54,32.47-32.47,32.47,0-17.93,14.54-32.47,32.47-32.47Z"/><circle class="cls-3" cx="50" cy="82.47" r="16.24"/><circle class="cls-2" cx="17.53" cy="50" r="16.24"/></svg>